<?xml version="1.0" encoding="UTF-8"?>
<svg id="_图层_1" data-name="图层 1" xmlns="http://www.w3.org/2000/svg" viewBox="0 0 207.65 48.03">
  <defs>
    <style>
      .cls-1 {
        fill: #fdd100;
      }

      .cls-2 {
        fill: #231815;
      }
    </style>
  </defs>
  <rect class="cls-2" x="1.85" y="7.55" width="5.88" height="33.47"/>
  <polygon class="cls-2" points="16.67 7.55 22.13 7.55 40.05 30.69 40.05 7.55 45.84 7.55 45.84 41.02 40.91 41.02 22.46 17.21 22.46 41.02 16.67 41.02 16.67 7.55"/>
  <polygon class="cls-2" points="54.45 7.55 79.36 7.55 79.36 12.91 60.33 12.91 60.33 22.04 77.21 22.04 77.21 27.39 60.33 27.39 60.33 41.02 54.45 41.02 54.45 7.55"/>
  <rect class="cls-2" x="86.16" y="7.55" width="5.88" height="33.47"/>
  <polygon class="cls-2" points="100.98 7.55 106.44 7.55 124.36 30.69 124.36 7.55 130.15 7.55 130.15 41.02 125.22 41.02 106.77 17.21 106.77 41.02 100.98 41.02 100.98 7.55"/>
  <polygon class="cls-2" points="205.32 7.55 193.66 23.9 205.8 41.02 198.87 41.02 190.03 28.25 181.23 41.02 174.49 41.02 186.58 24 174.97 7.55 181.9 7.55 190.22 19.69 198.58 7.55 205.32 7.55"/>
  <path class="cls-1" d="m160.01,36.27l-4.78-6.98-4.77,6.92c1.46.64,3.08.99,4.83.99s3.29-.34,4.71-.94"/>
  <path class="cls-2" d="m155.29,7.01c-5.03,0-9.65,1.87-13,5.27-3.26,3.31-5.06,7.77-5.06,12.54v.1c0,6.99,3.83,13.1,10,15.98l3.24-4.7c-4.27-1.91-7.03-6.37-7.03-11.38v-.1c0-6.98,5.05-12.25,11.75-12.25,3.3,0,6.33,1.29,8.52,3.64,2.15,2.29,3.33,5.39,3.33,8.71v.1c0,5.05-2.76,9.49-7.04,11.34l3.17,4.63c6.22-2.92,10.08-9.07,10.08-16.07v-.1c0-4.77-1.78-9.21-5.01-12.49-3.32-3.37-7.91-5.22-12.95-5.22"/>
</svg>